<?xml version="1.0" encoding="utf-8"?>
<!-- Svg Vector Icons : http://www.onlinewebfonts.com/icon -->
<!DOCTYPE svg PUBLIC "-//W3C//DTD SVG 1.1//EN" "http://www.w3.org/Graphics/SVG/1.1/DTD/svg11.dtd">
<svg version="1.1" xmlns="http://www.w3.org/2000/svg" xmlns:xlink="http://www.w3.org/1999/xlink" x="0px" y="0px" viewBox="0 0 256 256" enable-background="new 0 0 256 256" xml:space="preserve">
<metadata> Svg Vector Icons : http://www.onlinewebfonts.com/icon </metadata>
<g><g><g><path fill="#000000" d="M10,47.6c0,2.2,0,2.2,1.9,2.5c8.5,1.4,12.7,2.8,15.2,5.3c2,1.9,3,4.7,3.6,10.5c0.6,5.8,0.6,113.8,0,120.5c-1.3,12.8-3.9,15.3-18.3,17.2l-2.4,0.3v2.2v2.2h34.2h34.2v-2.2v-2.2l-2.3-0.3c-9.3-1.1-15-3-16.8-5.6c-3-4.2-3.4-9.6-3.5-40.5v-24.4l3.8-0.3c2.1-0.1,5.2-0.3,7-0.3h3.3l29.2,37.9l29.2,37.8l19.8,0h19.8V206c0-2.1,0-2.2-1.8-2.5c-7.1-1.1-11.4-3.1-15.8-7.5c-2.8-2.8-54.5-66-54.1-66.2c0-0.1,2.4-0.6,5.1-1.3c21.1-4.8,33.9-14.7,37.9-29.3c0.4-1.6,0.9-5.3,1.1-8.2c0.8-14.5-4.4-26.2-15-33.7c-5.8-4.1-17.9-8.6-28.7-10.5c-6-1.1-6.9-1.1-46.3-1.3L10,45.4V47.6z M83.6,55.5c9.9,1.6,16.3,4.5,21.7,9.9c3.9,3.8,5.8,7.2,7.4,13c1.3,4.9,1.2,15.7-0.3,20.9c-2.9,10.1-8.6,15.9-19.8,19.7c-7.4,2.6-19.9,4.4-31.2,4.8l-5.4,0.1v-32c0-29.7,0-32.1,0.9-33.5c0.9-1.8,2.9-3,5.9-3.6C65.6,54.2,78.1,54.6,83.6,55.5z"/><path fill="#000000" d="M196.4,96.6c-10.2,2.7-18.3,9.7-21.6,18.5c-2.1,5.7-2.1,14.6,0,20.6c3.5,9.7,10.6,15.9,32.1,28.2c15.2,8.7,17.2,10.3,20.4,16.4c1.2,2.4,1.3,3.1,1.3,7.5c0,4.1-0.2,5.3-1.1,7.2c-3.4,6.9-9.6,10.3-19,10.3c-16.3,0-24.9-8.7-30.5-30.9l-0.9-3.5h-1.9h-1.9v19.2v19.2h1.7c0.9,0,1.8-0.3,1.9-0.6c0.3-1,3.4-2.3,5.2-2.3c0.8,0,6.1,0.9,11.7,2c19.3,3.7,27.2,3.1,37.1-3.3c15.7-10,19.8-29,9.1-42.9c-4.3-5.6-7.8-8.1-28.1-20.1c-20-11.8-22.1-13.7-23.5-21.7c-1.4-8.1,2.9-15.3,10.6-18.2c5.7-2.1,13.2-1.7,18.8,1c6.6,3.1,12,11.8,15.7,25.1c0.7,2.8,0.8,2.9,2.5,2.9h1.7l-0.3-13.9c-0.2-7.6-0.4-15.2-0.6-16.7c-0.3-2.6-0.4-2.8-1.5-2.8c-0.6,0-2,0.5-3,1.2c-1,0.7-2.2,1.2-2.6,1.2s-3.8-0.9-7.6-2c-6.5-1.9-7.3-2.1-14.5-2.2C201.3,95.7,199.5,95.8,196.4,96.6z"/></g></g></g>
</svg>